<?xml version="1.0" encoding="utf-8"?>
<!-- Generator: Adobe Illustrator 25.0.1, SVG Export Plug-In . SVG Version: 6.00 Build 0)  -->
<svg version="1.1" id="Layer_1" xmlns="http://www.w3.org/2000/svg" xmlns:xlink="http://www.w3.org/1999/xlink" x="0px" y="0px"
	 viewBox="0 0 1080 1080" style="enable-background:new 0 0 1080 1080;" xml:space="preserve">
<style type="text/css">
	.st0{fill:#A95B27;}
	.st1{fill:#6DC7B8;}
</style>
<path class="st0" d="M1062,395c0,32.1-3.1,63.5-8.6,94c-14,12.8-29.3,22.1-29.3,22.1c-16.6,10.8-33.7,20.6-51.2,29.6
	c25.5-48.7,43.7-101.7,53-157.8c-31.3,75.4-79.6,141.9-140.1,194.8c-62.4,20.9-128.1,31.7-194.8,31.7c-0.5,0-1,0-1.6,0
	c174.1-64.8,304.7-218.9,336.2-406.6C1049,262.3,1062,327.1,1062,395z"/>
<path class="st1" d="M691.1,642.3c-301.5,0-554.7-206.2-626.6-485.2C99.9,481,374.3,733,707.5,733c36.6,0,72.3-3.2,107.2-9
	c-64.8,21.8-134,33.7-206.2,33.7c-262.6,0-488.5-156.5-590-381.3c76.4,272.3,326.3,472,622.9,472c15.3,0,30.3-0.7,45.3-1.8
	c-48.9,11.8-99.9,18.2-152.5,18.2c-164.5,0-314.5-61.5-428.7-162.6c8.9,12.4,18.4,24.5,28.3,36.1c0.1,0.2,0.3,0.3,0.4,0.5
	c6.5,7.5,13.1,14.8,20,22c0.2,0.2,0.4,0.4,0.6,0.6c10.2,10.6,20.9,20.7,32,30.4c1,0.9,2.1,1.8,3.1,2.7c6.2,5.3,12.5,10.5,18.9,15.6
	c1.3,1,2.6,2.1,4,3.1c3.6,2.7,7.1,5.4,10.8,8.1c1.7,1.3,3.5,2.5,5.3,3.8c5.7,4,11.4,8,17.3,11.8c2.5,1.6,5,3.2,7.5,4.8
	c4.5,2.8,9.1,5.6,13.7,8.3c3.6,2.1,7.1,4.2,10.7,6.2c3,1.7,6.1,3.4,9.2,5c4.9,2.6,9.9,5.2,14.9,7.6c2.9,1.4,5.8,2.8,8.8,4.2
	c4.3,2,8.5,3.9,12.8,5.8c2.4,1.1,4.9,2.2,7.3,3.2c6,2.5,12.1,4.9,18.2,7.2c2.4,0.9,4.8,1.8,7.2,2.6c6.4,2.3,12.9,4.5,19.5,6.6
	c1.6,0.5,3.2,1,4.8,1.4c5.9,1.8,11.9,3.5,17.9,5.1c1.8,0.5,3.6,1,5.5,1.5c7,1.8,14.1,3.4,21.2,4.9c1.9,0.4,3.7,0.8,5.6,1.1
	c7.4,1.5,14.9,2.8,22.4,4c0.7,0.1,1.4,0.2,2.1,0.3c7.3,1.1,14.6,2,21.9,2.8c1.5,0.2,3.1,0.3,4.6,0.5c7.7,0.8,15.4,1.3,23.1,1.8
	c1.6,0.1,3.2,0.1,4.7,0.2c8.1,0.4,16.2,0.6,24.4,0.6c8.4,0,16.8-0.2,25.1-0.6c2.7-0.1,5.3-0.3,8-0.5c5.7-0.4,11.3-0.8,16.9-1.3
	c3.1-0.3,6.1-0.6,9.2-1c5.3-0.6,10.5-1.3,15.7-2c3-0.4,6.1-0.9,9.1-1.3c5.5-0.9,10.9-1.9,16.3-2.9c2.6-0.5,5.2-0.9,7.8-1.5
	c7.8-1.6,15.5-3.4,23.2-5.4c1.6-0.4,3.1-0.9,4.7-1.3c6.2-1.6,12.3-3.4,18.4-5.2c3-0.9,6-1.9,9-2.9c4.6-1.5,9.1-3,13.6-4.6
	c3.3-1.2,6.5-2.4,9.8-3.6c4.2-1.6,8.3-3.2,12.4-4.9c3.3-1.3,6.6-2.7,9.9-4.1c4.1-1.8,8.1-3.6,12.1-5.5c3.2-1.5,6.4-2.9,9.5-4.4
	c5.3-2.6,10.5-5.3,15.7-8c4.7-2.5,9.4-5.1,14.1-7.8c3.3-1.9,6.5-3.7,9.7-5.6c3.7-2.2,7.4-4.5,11.1-6.9c2.8-1.8,5.6-3.5,8.3-5.3
	c3.8-2.5,7.5-5,11.3-7.6c2.4-1.7,4.9-3.4,7.3-5.2c3.9-2.8,7.8-5.6,11.6-8.5c1.8-1.4,3.6-2.8,5.4-4.2c14.5-11.4,28.4-23.5,41.6-36.3
	c0.7-0.7,1.5-1.4,2.2-2.1c4.2-4.1,8.3-8.3,12.4-12.6c1.1-1.1,2.1-2.2,3.2-3.3c4-4.3,8-8.7,11.9-13.1c0.8-0.9,1.6-1.8,2.3-2.7
	c22.4-25.8,42.3-53.8,59.3-83.6c0.1-0.2,0.2-0.4,0.3-0.6c20.9-36.6,37.5-76,49.3-117.4l0,0C940.9,604.1,820.5,642.3,691.1,642.3z"/>
</svg>
